<?xml version="1.0" encoding="utf-8"?>
<!DOCTYPE svg PUBLIC "-//W3C//DTD SVG 1.1//EN" "http://www.w3.org/Graphics/SVG/1.1/DTD/svg11.dtd">
<svg version="1.1" id="Layer_1" xmlns="http://www.w3.org/2000/svg" xmlns:xlink="http://www.w3.org/1999/xlink" x="0px" y="0px"
	 width="97.145px" height="97.145px" viewBox="0 0 97.145 97.145" enable-background="new 0 0 97.145 97.145" xml:space="preserve">
<g id="shape">
	<rect x="20.525" y="46.479" fill="#0E99FF" width="59.566" height="4.186"/>
	<polygon fill="#0E99FF" points="44.85,82.128 35.124,82.128 75.05,46.479 84.776,46.479 	"/>
	<polygon fill="#0E99FF" points="44.91,82.128 35.183,82.128 55.147,15.016 64.874,15.016 	"/>
	<polygon fill="#0E99FF" points="25.08,50.665 15.354,50.665 55.28,15.016 65.007,15.016 	"/>
</g>
<g id="circle">
	<path fill="#FFFFFF" d="M48.572,0C21.747,0,0,21.747,0,48.572c0,26.826,21.747,48.572,48.572,48.572
		c26.826,0,48.572-21.746,48.572-48.572C97.145,21.747,75.398,0,48.572,0z M80.091,50.665h-0.002L44.931,82.056l-0.021,0.072h-0.06
		h-9.667h-0.06l0.081-0.072l9.338-31.391H25.08h-4.555h-5.171L55.1,15.178l0.048-0.162h0.133h9.594h0.133l-0.181,0.162
		l-9.312,31.301H75.05h5.041h4.686l-4.686,4.184V50.665z"/>
	<polygon fill="#FFFFFF" points="51.582,27.002 29.768,46.479 45.788,46.479 	"/>
	<polygon fill="#FFFFFF" points="48.449,70.229 70.362,50.665 54.27,50.665 	"/>
</g>
</svg>
