<svg xmlns="http://www.w3.org/2000/svg" width="97.145" height="97.145" viewBox="0 0 97.145 97.145"><g id="shape" fill="#0E99FF"><path d="M20.525 46.479h59.566v4.186h-59.566zM44.85 82.128h-9.726l39.926-35.649h9.726zM44.91 82.128h-9.727l19.964-67.112h9.727zM25.08 50.665h-9.726l39.926-35.649h9.727z"/></g><g id="circle" fill="#fff"><path d="M48.572 0c-26.825 0-48.572 21.747-48.572 48.572 0 26.826 21.747 48.572 48.572 48.572 26.826 0 48.572-21.746 48.572-48.572.001-26.825-21.746-48.572-48.572-48.572zm31.519 50.665h-.002l-35.158 31.391-.021.072h-9.787l.081-.072 9.338-31.391h-29.188l39.746-35.487.048-.162h9.86l-.181.162-9.312 31.301h29.262l-4.686 4.184v.002zM51.582 27.002l-21.814 19.477h16.02zM48.449 70.229l21.913-19.564h-16.092z"/></g></svg>